<svg xmlns="http://www.w3.org/2000/svg" viewBox="0 0 125 125"><title>Artboard 25 copy 3</title><g id="Frames"><g id="Layer_137" data-name="Layer 137"><path d="M26.67,117.72c.66,2.37,1.65,5.35.43,7.88-1.58,3.28-1.56,4.83-1.56,4.83" fill="none" stroke="#231f20" stroke-miterlimit="10" stroke-width="0.75"/><path id="shirt-3" data-name="shirt" d="M116.19,130.43c0-7.1-.94-11-1.53-16.16a136.44,136.44,0,0,0-3.53-18.58c-2.5-10.07-10.75-13.25-18.45-17.2-1.88-1-12.94-4.34-12.94-4.34H79c-1.95-.18-30-1.73-30-1.73-9,4.22-21.6,7.52-29.45,14.47-5.21,4.61-9.41,15.18-9.41,21.83,0,1.76-.44,3.42-.41,5.16,0,2.23-.88,4.37-.9,6.6,0,1.18.21,2.35.23,3.53,0,2.4-.34,3.89-.31,6.42" fill="#099160" stroke="#020202" stroke-miterlimit="10" stroke-width="0.75"/><path d="M48.92,72.42l-7.39,3.09c0,3.57,0,7.15,0,10.72v8.21c0,5.53,1.21,10,5.6,13.6a26.85,26.85,0,0,0,16.2,6.24,31.52,31.52,0,0,0,14-2.85c2.79-1.3,5.82-3.13,7.39-6,2-3.59,1.13-8.17,1.28-12.09q.32-8.48.4-17a37.24,37.24,0,0,0-6.65-2.25C71.11,72,56,71.52,48.92,72.42Z" fill="#fce7d4" stroke="#020202" stroke-miterlimit="10" stroke-width="0.75"/><path id="head-3" data-name="head" d="M48.56,81.32s1-6.2.87-7.88,0-7.87,0-7.87a36.2,36.2,0,0,1-2.68-4.5,47,47,0,0,0-2.3-5.82c-1.26-2.65-1.08-6.43.62-6.74s3.66,1.11,4.36,2.09,3.09,4.52,3.09,4.52.26-4.81,1-6.44,5.36-8.4,5.89-11,.29-3.29.29-3.29,4.63,2.79,7.91.93,7-3.8,7-3.8S75.7,34.57,76.69,35s6.31,1.21,7,3.19,1.37,7,1,12-1.19,15.54-2.28,18.25a69.24,69.24,0,0,1-3.69,7.07L79.84,80" fill="#fce7d4" stroke="#020202" stroke-miterlimit="10" stroke-width="0.75"/><path d="M63.24,114.29s.28-5.48.52-7.39" fill="#7f4c0e" stroke="#000" stroke-miterlimit="10" stroke-width="0.75"/><path d="M62.38,78.49s2.73,4.26,7.22,4.18c4.2-.09,5.22-5.28,5.22-5.28" fill="#fce7d4" stroke="#020202" stroke-miterlimit="10" stroke-width="0.75"/><path d="M62.94,85.59a41.73,41.73,0,0,1-4.51-1.35" fill="none" stroke="#020202" stroke-miterlimit="10" stroke-width="0.75"/><path d="M63.37,79.74s-3.84-.53-4.92-2.42" fill="none" stroke="#231f20" stroke-miterlimit="10" stroke-width="0.75"/><path d="M76.15,34.71c2,1.15,4.36,1.32,6.35,2.35,2.44,1.25,2,4.73,2.31,7s-.34,12.75-1.71,21.64A18.85,18.85,0,0,1,81,71.84a19.6,19.6,0,0,1-6.58,6.51" fill="none" stroke="#231f20" stroke-miterlimit="10" stroke-width="0.75"/><path d="M74.57,31.13a7.79,7.79,0,0,1,0,.95" fill="none" stroke="#231f20" stroke-miterlimit="10" stroke-width="0.75"/><path d="M50.09,64.81a1,1,0,0,0,1.24-.11c.73-.54.9-.08.9-.08" fill="none" stroke="#231f20" stroke-miterlimit="10" stroke-width="0.75"/><g id="earring"><path d="M47.27,66.15A3.12,3.12,0,0,1,47,59.92l.28,0a3.15,3.15,0,0,1,3.11,2.85,3.12,3.12,0,0,1-2.84,3.39Z" fill="#fff"/><path d="M47.28,60.28a2.75,2.75,0,0,1,.24,5.49h-.25A2.75,2.75,0,0,1,47,60.29h.25m0-.75H47a3.5,3.5,0,0,0,.3,7h.31a3.5,3.5,0,0,0-.3-7Z"/></g><g id="earring-2" data-name="earring"><path d="M46,77.39a2.15,2.15,0,0,1-.19-4.3H46a2.15,2.15,0,0,1,.19,4.3Z" fill="#fff"/><path d="M46,73.45a1.79,1.79,0,0,1,1.77,1.63,1.77,1.77,0,0,1-.41,1.3,1.8,1.8,0,0,1-1.2.63H46a1.78,1.78,0,0,1-.16-3.55H46m0-.75h-.22A2.53,2.53,0,0,0,46,77.76h.22a2.53,2.53,0,0,0-.22-5Z"/></g><g id="earring-3" data-name="earring"><path d="M46.22,82a2.15,2.15,0,0,1-.19-4.3h.19a2.15,2.15,0,0,1,.19,4.3Z" fill="#fff"/><path d="M46.22,78.09A1.78,1.78,0,0,1,48,79.71a1.72,1.72,0,0,1-.41,1.3,1.76,1.76,0,0,1-1.2.63h-.16a1.78,1.78,0,0,1-.15-3.56h.15m0-.75H46a2.53,2.53,0,0,0,.22,5.05h.22a2.53,2.53,0,0,0-.22-5Z"/></g><g id="earring-4" data-name="earring"><path d="M47.05,86.73a2.15,2.15,0,0,1-.18-4.3h.19a2.18,2.18,0,0,1,2.14,2,2.15,2.15,0,0,1-2,2.33Z" fill="#fff"/><path d="M47.06,82.8a1.78,1.78,0,0,1,.15,3.55h-.16a1.77,1.77,0,0,1-1.77-1.63A1.79,1.79,0,0,1,46.9,82.8h.16m0-.75h-.23a2.53,2.53,0,0,0,.22,5h.22a2.53,2.53,0,0,0-.21-5Z"/></g><g id="earring-5" data-name="earring"><path d="M50.11,90.59a2.12,2.12,0,0,1-2.14-2,2.1,2.1,0,0,1,.49-1.58,2.14,2.14,0,0,1,1.46-.76h.19a2.15,2.15,0,0,1,.19,4.3Z" fill="#fff"/><path d="M50.11,86.66a1.79,1.79,0,0,1,1.77,1.62,1.74,1.74,0,0,1-.41,1.3,1.72,1.72,0,0,1-1.2.63h-.16A1.78,1.78,0,0,1,50,86.67h.16m0-.75h-.22a2.53,2.53,0,0,0,.22,5h.22a2.53,2.53,0,0,0-.22-5Z"/></g><path d="M76.15,40.32s2.91-2.09,4.53,1.71" fill="none" stroke="#231f20" stroke-miterlimit="10" stroke-width="0.75"/><path d="M65.27,40a3.29,3.29,0,0,0-3.81,1.19" fill="none" stroke="#231f20" stroke-miterlimit="10" stroke-width="0.75"/><path d="M76.69,55.55a1.12,1.12,0,1,0,2.19-.19,1.23,1.23,0,0,0-1.21-1.25A1.25,1.25,0,0,0,76.69,55.55Z" fill="#fff" stroke="#020202" stroke-miterlimit="10" stroke-width="0.75"/><path d="M63.56,55.35a1.24,1.24,0,0,0,1.21,1.25,1.38,1.38,0,0,0-.24-2.69A1.24,1.24,0,0,0,63.56,55.35Z" fill="#fff" stroke="#020202" stroke-miterlimit="10" stroke-width="0.75"/><path d="M79.27,59.77s-.09.39-1.4.12S76.24,59,76.24,59" fill="none" stroke="#231f20" stroke-miterlimit="10" stroke-width="0.75"/><path d="M65.45,58.9s-1.2,1.54-2.26,1.25a3.67,3.67,0,0,1-1.62-.91" fill="none" stroke="#231f20" stroke-miterlimit="10" stroke-width="0.75"/><path d="M65.68,44.59s-2.27-2.51-3.82.34-2.15,4.18-2.15,4.18" fill="none" stroke="#231f20" stroke-miterlimit="10" stroke-width="0.75"/><path d="M76.56,45s1.53-1.67,3.27.57a13.65,13.65,0,0,1,2.31,4.25" fill="none" stroke="#231f20" stroke-miterlimit="10" stroke-width="0.75"/><path id="nose-4" data-name="nose" d="M70.29,59.26s1.67,3.11,3.3,4.12c7,4.34-5.46,7-6,3.32" fill="none" stroke="#231f20" stroke-miterlimit="10" stroke-width="0.75"/><path id="hair-10" data-name="hair" d="M44.27,48.68s-2.09-7-2.1-10.13c0-6.69,3.54-13.25,3.54-13.25a14.72,14.72,0,0,1,.37-5.13c.69-2.24,5.41-7.41,10.12-7.85s8.1.24,9.07.67a44.53,44.53,0,0,1,4,2.5,17.46,17.46,0,0,1,8.53-1.65c4.48.42,8.28,1.44,9.72,3.26s3.1,3.6,3.26,6.69a45.49,45.49,0,0,1-.15,6.12,15.13,15.13,0,0,1,.74,4.87c-.1,2.41-1.9,7.43-2.94,9.63a48.24,48.24,0,0,1-3.66,5.78s-.19-7.86-.16-9.3-1.27-4-3-4.44-4.79-.67-5.38-1.74-1.57-3.23-1.57-3.23-.83.41-3,1.58-3.06,2.5-4.74,3.1-3.95-.17-4.76-.35a14.51,14.51,0,0,1-2.41-1.46,10.58,10.58,0,0,1-.2,5,33.36,33.36,0,0,1-4.25,7c-1.73,2.34-2.74,8.78-2.74,8.78s-4.3-5.84-5.28-6.44C46.08,48,44.27,48.68,44.27,48.68Z" fill="#f99c16" stroke="#000" stroke-miterlimit="10" stroke-width="0.75"/><path d="M66,71.61a9.94,9.94,0,0,1-.79-.8c-.35-.41-1.46-2-2.17-1.77s-.69,2.75-.69,3.4a3.37,3.37,0,0,0,.52,2.1,3.67,3.67,0,0,0,1.86,1.1,17.78,17.78,0,0,0,2.61.65,3.62,3.62,0,0,0,1.57,0,1.46,1.46,0,0,0,1.11-1,1.54,1.54,0,0,0-.57-1.41,6.43,6.43,0,0,0-1.36-.81A9.89,9.89,0,0,1,66,71.61Z" fill="#fff" stroke="#020202" stroke-miterlimit="10" stroke-width="0.75"/><g id="glasses-2" data-name="glasses"><path d="M91.71,49.81a41.08,41.08,0,0,0-7.9-.61c-2.76.2-9.25,2.34-10.32,2.64a9.43,9.43,0,0,1-2.37.36,17.61,17.61,0,0,1-3.21-.66c-.62-.18-5.62-2.08-7.32-2.16A54.43,54.43,0,0,0,53,49.3c-2.42.26-2.75.48-2.71.7l.38,2.37a2.89,2.89,0,0,1,.52.21,1.08,1.08,0,0,1,.43.48c.1.24,2.48,6,2.57,6.24A4.13,4.13,0,0,0,55,60.67,6.65,6.65,0,0,0,57.07,62a12.14,12.14,0,0,0,5.9.53,8,8,0,0,0,3.22-1.46,10.92,10.92,0,0,0,2.16-2.81c.32-.72,1.3-3,1.51-3.31a1.66,1.66,0,0,1,1.26-.54,1.42,1.42,0,0,1,1.31.8c.27.56,1.11,2.71,1.75,3.81a6.37,6.37,0,0,0,4,3.3,11,11,0,0,0,6-.07,6,6,0,0,0,2.27-1.05,5.68,5.68,0,0,0,1.14-1.45c.3-.61,1.21-3.91,1.28-4.24a17.42,17.42,0,0,1,1.68-2.75,3,3,0,0,1,.73-.38l.4-2.37A.37.37,0,0,0,91.71,49.81Zm-25,7.62a9.85,9.85,0,0,1-1.93,2.91,6.5,6.5,0,0,1-4.3,1,8,8,0,0,1-3.8-1C55.86,60,55.5,59,55.12,58a14.2,14.2,0,0,1-.46-4.18.76.76,0,0,0,0-.15,1.53,1.53,0,0,1,.48-1.07c.93-.88,2.42-.86,3.62-.91a20.31,20.31,0,0,1,4.12.22c1.3.2,4.18.52,4.41,2.28A13.13,13.13,0,0,1,66.72,57.43ZM86.81,58c-.39,1-.75,2.07-1.58,2.44a8,8,0,0,1-3.79,1,6.5,6.5,0,0,1-4.3-1,9.7,9.7,0,0,1-1.92-2.91,8.45,8.45,0,0,1-.59-3.17c.17-1.37,2-2,3.19-2.18a22.79,22.79,0,0,1,4.87-.48c1.28,0,3,0,4.08,1a1.49,1.49,0,0,1,.48,1.07s0,.1,0,.15A14.09,14.09,0,0,1,86.81,58Z"/></g><g id="earring-6" data-name="earring"><path d="M53.5,94.32a2.15,2.15,0,0,1-.18-4.3h.19a2.15,2.15,0,0,1,.19,4.3Z" fill="#fff"/><path d="M53.51,90.39a1.78,1.78,0,0,1,.15,3.55H53.5a1.76,1.76,0,0,1-1.76-1.62,1.78,1.78,0,0,1,1.61-1.93h.16m0-.75h-.22a2.53,2.53,0,0,0,.21,5h.23a2.52,2.52,0,0,0-.22-5Z"/></g><g id="earring-7" data-name="earring"><path d="M57.88,96.65a2.15,2.15,0,0,1-.18-4.3h.19a2.18,2.18,0,0,1,2.14,2,2.15,2.15,0,0,1-2,2.33Z" fill="#fff"/><path d="M57.89,92.72A1.78,1.78,0,0,1,58,96.27h-.16a1.77,1.77,0,0,1-1.77-1.63,1.79,1.79,0,0,1,1.62-1.93h.16m0-.75h-.23a2.53,2.53,0,0,0,.22,5h.23a2.53,2.53,0,0,0-.22-5Z"/></g><g id="earring-8" data-name="earring"><path d="M62.94,96.65a2.15,2.15,0,0,1-.19-4.3h.19a2.15,2.15,0,0,1,.19,4.3Z" fill="#fff"/><path d="M62.94,92.72a1.78,1.78,0,0,1,1.77,1.62,1.72,1.72,0,0,1-.41,1.3,1.76,1.76,0,0,1-1.2.63h-.16a1.78,1.78,0,0,1-.15-3.56h.15m0-.75h-.22a2.53,2.53,0,0,0,.22,5h.22a2.53,2.53,0,0,0-.22-5Z"/></g><g id="earring-9" data-name="earring"><path d="M67.61,96.3A2.15,2.15,0,0,1,66,92.76,2.1,2.1,0,0,1,67.43,92h.19a2.15,2.15,0,0,1,.18,4.3Z" fill="#fff"/><path d="M67.62,92.36A1.8,1.8,0,0,1,69.39,94a1.78,1.78,0,0,1-1.62,1.92h-.16a1.78,1.78,0,0,1-.15-3.55h.16m0-.75h-.23a2.53,2.53,0,0,0,.22,5h.23a2.53,2.53,0,0,0-.22-5Z"/></g><g id="earring-10" data-name="earring"><path d="M72.29,94.51a2.15,2.15,0,0,1-.18-4.3h.19a2.15,2.15,0,0,1,.18,4.3Z" fill="#fff"/><path d="M72.3,90.57a1.8,1.8,0,0,1,1.77,1.63,1.78,1.78,0,0,1-1.62,1.92h-.16a1.77,1.77,0,0,1-1.77-1.62,1.79,1.79,0,0,1,1.62-1.93h.16m0-.75h-.23a2.53,2.53,0,0,0,.22,5h.22a2.53,2.53,0,0,0-.21-5.05Z"/></g><g id="earring-11" data-name="earring"><path d="M76.24,91.79a2.15,2.15,0,0,1-.19-4.3h.19a2.15,2.15,0,0,1,.19,4.3Z" fill="#fff"/><path d="M76.24,87.86a1.78,1.78,0,0,1,.16,3.55h-.16a1.76,1.76,0,0,1-1.77-1.62,1.78,1.78,0,0,1,1.62-1.93h.15m0-.75H76a2.52,2.52,0,0,0,.22,5h.22a2.52,2.52,0,0,0-.22-5Z"/></g><g id="earring-12" data-name="earring"><path d="M78.89,87.75a2.13,2.13,0,0,1-2.14-2,2.09,2.09,0,0,1,.49-1.57,2.14,2.14,0,0,1,1.46-.76h.19a2.15,2.15,0,0,1,.19,4.3Z" fill="#fff"/><path d="M78.89,83.81a1.79,1.79,0,0,1,1.77,1.63,1.77,1.77,0,0,1-1.61,1.92h-.16a1.78,1.78,0,0,1-.16-3.55h.16m0-.75h-.22a2.53,2.53,0,0,0,.22,5.05h.22a2.53,2.53,0,0,0-.22-5Z"/></g><g id="earring-13" data-name="earring"><path d="M80.8,83.22a2.13,2.13,0,0,1-2.14-2,2.09,2.09,0,0,1,.49-1.57,2.14,2.14,0,0,1,1.46-.76h.19a2.15,2.15,0,0,1,.19,4.3Z" fill="#fff"/><path d="M80.8,79.28a1.8,1.8,0,0,1,1.77,1.63A1.77,1.77,0,0,1,81,82.83H80.8a1.78,1.78,0,0,1-.16-3.55h.16m0-.75h-.22a2.53,2.53,0,0,0,.22,5H81a2.53,2.53,0,0,0-.22-5Z"/></g><g id="earring-14" data-name="earring"><path d="M82.35,78.55a2.15,2.15,0,0,1-.18-4.3h.19a2.18,2.18,0,0,1,2.14,2,2.15,2.15,0,0,1-2,2.33Z" fill="#fff"/><path d="M82.36,74.62a1.78,1.78,0,0,1,.15,3.55h-.16a1.78,1.78,0,0,1-.15-3.55h.16m0-.75h-.23a2.53,2.53,0,0,0,.22,5.05h.23a2.53,2.53,0,0,0-.22-5Z"/></g></g></g></svg>